<svg xmlns:rdf="http://www.w3.org/1999/02/22-rdf-syntax-ns#" xmlns="http://www.w3.org/2000/svg" xmlns:cc="http://creativecommons.org/ns#" xmlns:dc="http://purl.org/dc/elements/1.1/" version="1.1" x="0px" y="0px" viewBox="0 0 100 100"><path style="direction:ltr;enable-background:accumulate;baseline-shift:baseline;block-progression:tb;text-indent:0;color:#777777;text-transform:none;" fill="#777" d="M49.868,4.0038a0.88838,0.88838,0,0,1,0.556,1.3063c-0.65854,1.335-0.10043,3.1942,0.48986,5.3885,0.59025,2.1944,1.0961,4.8105-0.58784,7.1193a0.88838,0.88838,0,1,1,-1.437,-1.045c1.214-1.666,0.895-3.502,0.326-5.617-0.569-2.1153-1.471-4.4413-0.392-6.6297a0.88838,0.88838,0,0,1,0.78378,-0.52252,0.88838,0.88838,0,0,1,0.09797,0,0.88838,0.88838,0,0,1,0.16329,0zm11.235,3.7882a0.88838,0.88838,0,0,1,0.098,0.03266,0.88838,0.88838,0,0,1,0.6205,1.3063c-0.65855,1.335-0.0677,3.1942,0.52252,5.3885,0.59025,2.1944,1.0961,4.7779-0.58784,7.0867a0.88838,0.88838,0,1,1,-1.4369,-1.045c1.2146-1.6654,0.86284-3.4694,0.29392-5.5844-0.56892-2.1151-1.4387-4.4737-0.35923-6.6621a0.88838,0.88838,0,0,1,0.84909,-0.52252zm-22.534,1.0777a0.88838,0.88838,0,0,1,0.0653,0.03266,0.88838,0.88838,0,0,1,0.62049,1.3063c-0.65854,1.335-0.10042,3.1942,0.48987,5.3885,0.59025,2.1944,1.1288,4.7779-0.55518,7.0867a0.88838,0.88838,0,1,1,-1.4369,-1.045c1.2146-1.6654,0.86284-3.4694,0.29392-5.5844-0.56892-2.1151-1.4714-4.4411-0.39189-6.6295a0.88838,0.88838,0,0,1,0.91442,-0.55518zm12.704,16.002c8.428,0,16.028,1.128,21.619,3.0045,2.7954,0.93824,5.0776,2.0855,6.7274,3.3964,1.3393,1.0642,2.2692,2.3233,2.5799,3.6903a0.7949,0.99284,0,0,1,0.0653,0.13063c0.0121,0.0627,0.0233,0.13314,0.0327,0.19594,1.0666,4.7597,1.0923,9.7788,0.13063,14.565-0.69657,3.4666-1.8526,6.683-3.429,9.6013,7.57,3.7783,12.508,9.1218,12.508,15.284,0,6.0965-4.8149,11.418-12.247,15.186-7.431,3.769-17.594,6.075-28.804,6.075-11.211,0-21.372-2.306-28.804-6.074-7.431-3.769-12.246-9.09-12.246-15.186,0-3.3844,1.5245-6.5745,4.1149-9.3401,2.4219-2.5856,5.8008-4.824,9.8626-6.6621-0.51289-0.99979-0.98925-2.0178-1.4043-3.0698a0.88533,0.89143,0,0,1,-0.42454,0.19594c-1.5264,0.36921-3.101,0.42194-4.6374,0.09797-5.7206-1.2073-9.396-6.8782-8.197-12.638,1.1307-5.4319,6.2206-9.0461,11.593-8.4256,0.32434-1.3434,1.2601-2.5762,2.58-3.625,1.6498-1.3109,3.9321-2.4581,6.7274-3.3964,5.5908-1.8765,13.224-3.0045,21.652-3.0045zm0,1.7962c-8.2674,0-15.764,1.117-21.097,2.9065-2.666,0.89487-4.7696,1.9553-6.1723,3.0698-1.3301,1.0568-1.9929,2.1061-2.0574,3.1025a0.88533,0.89143,0,0,1,0,0.06531c-0.001,0.0324,0,0.06558,0,0.09797a0.88533,0.89143,0,0,1,0,0.16329c0.0645,0.99321,0.7272,2.013,2.0574,3.0698,1.4028,1.1145,3.5064,2.175,6.1723,3.0698,5.3319,1.7895,12.828,2.9392,21.097,2.9392,8.2674,0,15.732-1.1496,21.064-2.9392,2.666-0.89476,4.8022-1.9553,6.2049-3.0698,1.4028-1.1145,2.0248-2.1888,2.0248-3.2331s-0.62204-2.1512-2.0248-3.2658c-1.4027-1.1145-3.5389-2.175-6.2049-3.0698-5.3319-1.7895-12.797-2.9065-21.064-2.9065zm-32.135,9.9279c-4.1227-0.01777-7.8421,2.8718-8.7196,7.0867-1.0028,4.817,2.0741,9.4737,6.8581,10.483,1.2799,0.27014,2.5494,0.30756,3.8209,0a0.88533,0.89143,0,0,1,0.32658,-0.03266c-1.8475-5.4217-2.3436-11.429-1.241-17.472-0.35143-0.04389-0.69778-0.06427-1.045-0.06531zm62.18,2.2207c-0.44736,0.62525-1.0162,1.189-1.6982,1.7308-1.6498,1.3109-3.9321,2.4255-6.7274,3.3637-5.5908,1.8765-13.191,3.0045-21.619,3.0045s-16.061-1.128-21.652-3.0045c-2.7954-0.93824-5.0776-2.0528-6.7274-3.3637-0.55874-0.44393-1.0316-0.9037-1.4369-1.4043-0.8319,6.9161,0.5831,13.679,3.723,19.399a0.88838,0.88838,0,0,1,0.16329,0.19594c1.0353,1.8613,2.2486,3.6194,3.625,5.2252,0.23677,0.2737,0.4722,0.55131,0.71847,0.81644,0.11384,0.12384,0.24341,0.23738,0.35923,0.35923,0.22222,0.23127,0.42366,0.46154,0.65315,0.68581,0.14915,0.14756,0.30505,0.28012,0.45721,0.42455,0.20793,0.195,0.40698,0.39868,0.62049,0.58784,0.18255,0.16397,0.36865,0.33039,0.55518,0.48986,3.5874,3.0252,7.9362,5.2391,12.802,6.3029,11.21,2.4511,22.253-1.9376,29.196-10.352,0.0343-0.0418,0.0639-0.08883,0.098-0.13063,0.96088-1.1769,1.822-2.4308,2.6126-3.7556a0.88838,0.88838,0,0,1,0.098,-0.13063c1.7622-2.9874,3.0636-6.354,3.7883-9.9605,0.69996-3.4835,0.84142-6.9973,0.39189-10.483zm-55.877,11.626,0.6205,0.32658,0.13063,0.19594,0.65315,1.8288,0,0.03266,0.75112,1.6655,0.0327,0.03266,0,0.03266,0.81643,1.5349,0.0327,0.06531,0.91441,1.4696,0.0327,0.03266,0.97973,1.3716,0.0327,0.03266,1.045,1.2736,0.0327,0.06531,0.88175,0.94707,0.19595,0.71846-0.45721,0.55518-0.71846-0.06531-0.16329-0.13063-0.94707-1.0124-0.0327-0.03266-1.0777-1.3716-0.0327-0.03266-1.045-1.4369-0.0327-0.06532-0.97972-1.5349,0-0.06531-0.88176-1.6329-0.0326-0.06531-0.78379-1.7635-0.0326-0.06531-0.68581-1.8615,0.098-0.71846,0.65315-0.32658zm-1.1757,9.8952c-3.9466,1.7746-7.2402,3.8888-9.4707,6.2702-2.3647,2.5246-3.625,5.2738-3.625,8.1317,0,5.1492,4.1936,10.015,11.3,13.618,7.1064,3.6034,17.021,5.8457,27.987,5.8457,10.968,0,20.881-2.2423,27.987-5.8457,7.1064-3.6034,11.3-8.4693,11.3-13.618,0-5.2189-4.3788-10.105-11.659-13.716-6.9266,11.307-19.991,17.488-33.213,14.598-8.894-1.945-16.178-7.686-20.606-15.284zm10.156,2.9718,0.19595,0.13063,0.32657,0.26126,0.0327,0.03266,0.84909,0.65315,0.29392,0.65315-0.32657,0.62049-0.71847,0.06531-0.19594-0.09797-0.88176-0.68581-0.0327,0-0.35924-0.32658-0.26126-0.65315,0.35924-0.62049,0.71846-0.03266zm3.723,2.6779,0.2286,0.09797,0.19595,0.13063,0.0653,0.03266,1.143,0.62049,0.0327,0,1.143,0.55518,0.0326,0,1.143,0.4572,0,0.03266,1.0777,0.32658,0.48987,0.52252-0.13063,0.71847-0.65315,0.29392-0.22861-0.03266-1.1104-0.39189-0.0327,0-1.1757-0.48986-0.0327-0.03266-1.2083-0.55518-0.0653,0-1.2083-0.68581-0.0327,0-0.26126-0.16329-0.39189-0.62049,0.29392-0.65315,0.68581-0.16329z"/></svg>